<mxfile host="app.diagrams.net" agent="Mozilla/5.0 (X11; Linux x86_64) AppleWebKit/537.36 (KHTML, like Gecko) Chrome/134.0.0.0 Safari/537.36" version="26.2.14">
  <diagram name="Page-1" id="QvqRgHMjgAeJgdzM8PWr">
    <mxGraphModel dx="1148" dy="519" grid="1" gridSize="10" guides="1" tooltips="1" connect="1" arrows="1" fold="1" page="1" pageScale="1" pageWidth="850" pageHeight="1100" math="0" shadow="0">
      <root>
        <mxCell id="0" />
        <mxCell id="1" parent="0" />
        <mxCell id="BsqLiGkud_p7bw2zS82Q-10" style="edgeStyle=orthogonalEdgeStyle;rounded=0;orthogonalLoop=1;jettySize=auto;html=1;entryX=0;entryY=0.25;entryDx=0;entryDy=0;" edge="1" parent="1" source="BsqLiGkud_p7bw2zS82Q-1" target="BsqLiGkud_p7bw2zS82Q-5">
          <mxGeometry relative="1" as="geometry" />
        </mxCell>
        <mxCell id="BsqLiGkud_p7bw2zS82Q-1" value="Comparator&lt;div&gt;lvl1&lt;/div&gt;" style="rounded=0;whiteSpace=wrap;html=1;" vertex="1" parent="1">
          <mxGeometry x="220" y="103" width="80" height="50" as="geometry" />
        </mxCell>
        <mxCell id="BsqLiGkud_p7bw2zS82Q-11" style="edgeStyle=orthogonalEdgeStyle;rounded=0;orthogonalLoop=1;jettySize=auto;html=1;entryX=0;entryY=0.75;entryDx=0;entryDy=0;" edge="1" parent="1" source="BsqLiGkud_p7bw2zS82Q-2" target="BsqLiGkud_p7bw2zS82Q-5">
          <mxGeometry relative="1" as="geometry" />
        </mxCell>
        <mxCell id="BsqLiGkud_p7bw2zS82Q-2" value="Comparator&lt;div&gt;lvl1&lt;/div&gt;" style="rounded=0;whiteSpace=wrap;html=1;" vertex="1" parent="1">
          <mxGeometry x="220" y="173" width="80" height="50" as="geometry" />
        </mxCell>
        <mxCell id="BsqLiGkud_p7bw2zS82Q-12" style="edgeStyle=orthogonalEdgeStyle;rounded=0;orthogonalLoop=1;jettySize=auto;html=1;entryX=0;entryY=0.25;entryDx=0;entryDy=0;" edge="1" parent="1" source="BsqLiGkud_p7bw2zS82Q-3" target="BsqLiGkud_p7bw2zS82Q-6">
          <mxGeometry relative="1" as="geometry" />
        </mxCell>
        <mxCell id="BsqLiGkud_p7bw2zS82Q-3" value="Comparator&lt;div&gt;lvl1&lt;/div&gt;" style="rounded=0;whiteSpace=wrap;html=1;" vertex="1" parent="1">
          <mxGeometry x="220" y="243" width="80" height="50" as="geometry" />
        </mxCell>
        <mxCell id="BsqLiGkud_p7bw2zS82Q-13" style="edgeStyle=orthogonalEdgeStyle;rounded=0;orthogonalLoop=1;jettySize=auto;html=1;entryX=0;entryY=0.75;entryDx=0;entryDy=0;" edge="1" parent="1" source="BsqLiGkud_p7bw2zS82Q-4" target="BsqLiGkud_p7bw2zS82Q-6">
          <mxGeometry relative="1" as="geometry" />
        </mxCell>
        <mxCell id="BsqLiGkud_p7bw2zS82Q-4" value="Comparator&lt;div&gt;lvl1&lt;/div&gt;" style="rounded=0;whiteSpace=wrap;html=1;" vertex="1" parent="1">
          <mxGeometry x="220" y="313" width="80" height="50" as="geometry" />
        </mxCell>
        <mxCell id="BsqLiGkud_p7bw2zS82Q-8" style="edgeStyle=orthogonalEdgeStyle;rounded=0;orthogonalLoop=1;jettySize=auto;html=1;entryX=0;entryY=0.25;entryDx=0;entryDy=0;" edge="1" parent="1" source="BsqLiGkud_p7bw2zS82Q-5" target="BsqLiGkud_p7bw2zS82Q-7">
          <mxGeometry relative="1" as="geometry">
            <Array as="points">
              <mxPoint x="430" y="162" />
              <mxPoint x="430" y="221" />
            </Array>
          </mxGeometry>
        </mxCell>
        <mxCell id="BsqLiGkud_p7bw2zS82Q-5" value="Comparator&lt;div&gt;lvl2&lt;/div&gt;" style="rounded=0;whiteSpace=wrap;html=1;" vertex="1" parent="1">
          <mxGeometry x="340" y="137" width="80" height="50" as="geometry" />
        </mxCell>
        <mxCell id="BsqLiGkud_p7bw2zS82Q-9" style="edgeStyle=orthogonalEdgeStyle;rounded=0;orthogonalLoop=1;jettySize=auto;html=1;entryX=0;entryY=0.75;entryDx=0;entryDy=0;" edge="1" parent="1" source="BsqLiGkud_p7bw2zS82Q-6" target="BsqLiGkud_p7bw2zS82Q-7">
          <mxGeometry relative="1" as="geometry">
            <Array as="points">
              <mxPoint x="430" y="302" />
              <mxPoint x="430" y="246" />
            </Array>
          </mxGeometry>
        </mxCell>
        <mxCell id="BsqLiGkud_p7bw2zS82Q-6" value="Comparator&lt;div&gt;lvl2&lt;/div&gt;" style="rounded=0;whiteSpace=wrap;html=1;" vertex="1" parent="1">
          <mxGeometry x="340" y="277" width="80" height="50" as="geometry" />
        </mxCell>
        <mxCell id="BsqLiGkud_p7bw2zS82Q-14" style="edgeStyle=orthogonalEdgeStyle;rounded=0;orthogonalLoop=1;jettySize=auto;html=1;" edge="1" parent="1" source="BsqLiGkud_p7bw2zS82Q-7">
          <mxGeometry relative="1" as="geometry">
            <mxPoint x="580" y="233" as="targetPoint" />
          </mxGeometry>
        </mxCell>
        <mxCell id="BsqLiGkud_p7bw2zS82Q-7" value="Comparator&lt;div&gt;lvl1&lt;/div&gt;" style="rounded=0;whiteSpace=wrap;html=1;" vertex="1" parent="1">
          <mxGeometry x="450" y="208" width="80" height="50" as="geometry" />
        </mxCell>
        <mxCell id="BsqLiGkud_p7bw2zS82Q-16" value="&lt;font style=&quot;font-size: 18px;&quot;&gt;min sad&lt;/font&gt;" style="text;html=1;align=center;verticalAlign=middle;whiteSpace=wrap;rounded=0;" vertex="1" parent="1">
          <mxGeometry x="580" y="218" width="60" height="30" as="geometry" />
        </mxCell>
        <mxCell id="BsqLiGkud_p7bw2zS82Q-40" style="edgeStyle=orthogonalEdgeStyle;rounded=0;orthogonalLoop=1;jettySize=auto;html=1;entryX=0;entryY=0.25;entryDx=0;entryDy=0;" edge="1" parent="1" source="BsqLiGkud_p7bw2zS82Q-27" target="BsqLiGkud_p7bw2zS82Q-1">
          <mxGeometry relative="1" as="geometry" />
        </mxCell>
        <mxCell id="BsqLiGkud_p7bw2zS82Q-27" value="Comp. PE0" style="rounded=0;whiteSpace=wrap;html=1;" vertex="1" parent="1">
          <mxGeometry x="100" y="90" width="80" height="30" as="geometry" />
        </mxCell>
        <mxCell id="BsqLiGkud_p7bw2zS82Q-42" style="edgeStyle=orthogonalEdgeStyle;rounded=0;orthogonalLoop=1;jettySize=auto;html=1;entryX=0;entryY=0.75;entryDx=0;entryDy=0;" edge="1" parent="1" source="BsqLiGkud_p7bw2zS82Q-28" target="BsqLiGkud_p7bw2zS82Q-1">
          <mxGeometry relative="1" as="geometry" />
        </mxCell>
        <mxCell id="BsqLiGkud_p7bw2zS82Q-28" value="Comp. PE1" style="rounded=0;whiteSpace=wrap;html=1;" vertex="1" parent="1">
          <mxGeometry x="100" y="120" width="80" height="30" as="geometry" />
        </mxCell>
        <mxCell id="BsqLiGkud_p7bw2zS82Q-43" style="edgeStyle=orthogonalEdgeStyle;rounded=0;orthogonalLoop=1;jettySize=auto;html=1;entryX=0;entryY=0.25;entryDx=0;entryDy=0;" edge="1" parent="1" source="BsqLiGkud_p7bw2zS82Q-29" target="BsqLiGkud_p7bw2zS82Q-2">
          <mxGeometry relative="1" as="geometry" />
        </mxCell>
        <mxCell id="BsqLiGkud_p7bw2zS82Q-29" value="Comp. PE2" style="rounded=0;whiteSpace=wrap;html=1;" vertex="1" parent="1">
          <mxGeometry x="100" y="165" width="80" height="30" as="geometry" />
        </mxCell>
        <mxCell id="BsqLiGkud_p7bw2zS82Q-44" style="edgeStyle=orthogonalEdgeStyle;rounded=0;orthogonalLoop=1;jettySize=auto;html=1;entryX=0;entryY=0.75;entryDx=0;entryDy=0;" edge="1" parent="1" source="BsqLiGkud_p7bw2zS82Q-30" target="BsqLiGkud_p7bw2zS82Q-2">
          <mxGeometry relative="1" as="geometry" />
        </mxCell>
        <mxCell id="BsqLiGkud_p7bw2zS82Q-30" value="Comp. PE3" style="rounded=0;whiteSpace=wrap;html=1;" vertex="1" parent="1">
          <mxGeometry x="100" y="195" width="80" height="30" as="geometry" />
        </mxCell>
        <mxCell id="BsqLiGkud_p7bw2zS82Q-45" style="edgeStyle=orthogonalEdgeStyle;rounded=0;orthogonalLoop=1;jettySize=auto;html=1;entryX=0;entryY=0.25;entryDx=0;entryDy=0;" edge="1" parent="1" source="BsqLiGkud_p7bw2zS82Q-35" target="BsqLiGkud_p7bw2zS82Q-3">
          <mxGeometry relative="1" as="geometry" />
        </mxCell>
        <mxCell id="BsqLiGkud_p7bw2zS82Q-35" value="Comp. PE4" style="rounded=0;whiteSpace=wrap;html=1;" vertex="1" parent="1">
          <mxGeometry x="100" y="235" width="80" height="30" as="geometry" />
        </mxCell>
        <mxCell id="BsqLiGkud_p7bw2zS82Q-46" style="edgeStyle=orthogonalEdgeStyle;rounded=0;orthogonalLoop=1;jettySize=auto;html=1;entryX=0;entryY=0.75;entryDx=0;entryDy=0;" edge="1" parent="1" source="BsqLiGkud_p7bw2zS82Q-36" target="BsqLiGkud_p7bw2zS82Q-3">
          <mxGeometry relative="1" as="geometry" />
        </mxCell>
        <mxCell id="BsqLiGkud_p7bw2zS82Q-36" value="Comp. PE5" style="rounded=0;whiteSpace=wrap;html=1;" vertex="1" parent="1">
          <mxGeometry x="100" y="265" width="80" height="30" as="geometry" />
        </mxCell>
        <mxCell id="BsqLiGkud_p7bw2zS82Q-49" style="edgeStyle=orthogonalEdgeStyle;rounded=0;orthogonalLoop=1;jettySize=auto;html=1;entryX=0;entryY=0.25;entryDx=0;entryDy=0;" edge="1" parent="1" source="BsqLiGkud_p7bw2zS82Q-37" target="BsqLiGkud_p7bw2zS82Q-4">
          <mxGeometry relative="1" as="geometry" />
        </mxCell>
        <mxCell id="BsqLiGkud_p7bw2zS82Q-37" value="Comp. PE6" style="rounded=0;whiteSpace=wrap;html=1;" vertex="1" parent="1">
          <mxGeometry x="100" y="310" width="80" height="30" as="geometry" />
        </mxCell>
        <mxCell id="BsqLiGkud_p7bw2zS82Q-48" style="edgeStyle=orthogonalEdgeStyle;rounded=0;orthogonalLoop=1;jettySize=auto;html=1;entryX=0;entryY=0.75;entryDx=0;entryDy=0;" edge="1" parent="1" source="BsqLiGkud_p7bw2zS82Q-38" target="BsqLiGkud_p7bw2zS82Q-4">
          <mxGeometry relative="1" as="geometry" />
        </mxCell>
        <mxCell id="BsqLiGkud_p7bw2zS82Q-38" value="Comp. PE7" style="rounded=0;whiteSpace=wrap;html=1;" vertex="1" parent="1">
          <mxGeometry x="100" y="340" width="80" height="30" as="geometry" />
        </mxCell>
        <mxCell id="BsqLiGkud_p7bw2zS82Q-51" value="" style="endArrow=classic;html=1;rounded=0;entryX=0;entryY=0.25;entryDx=0;entryDy=0;" edge="1" parent="1" target="BsqLiGkud_p7bw2zS82Q-27">
          <mxGeometry width="50" height="50" relative="1" as="geometry">
            <mxPoint x="60" y="98" as="sourcePoint" />
            <mxPoint x="70" y="100" as="targetPoint" />
          </mxGeometry>
        </mxCell>
        <mxCell id="BsqLiGkud_p7bw2zS82Q-52" value="" style="endArrow=classic;html=1;rounded=0;entryX=0;entryY=0.25;entryDx=0;entryDy=0;" edge="1" parent="1">
          <mxGeometry width="50" height="50" relative="1" as="geometry">
            <mxPoint x="60" y="110" as="sourcePoint" />
            <mxPoint x="100" y="110" as="targetPoint" />
          </mxGeometry>
        </mxCell>
        <mxCell id="BsqLiGkud_p7bw2zS82Q-53" value="" style="endArrow=classic;html=1;rounded=0;entryX=0;entryY=0.25;entryDx=0;entryDy=0;" edge="1" parent="1">
          <mxGeometry width="50" height="50" relative="1" as="geometry">
            <mxPoint x="60" y="128.86" as="sourcePoint" />
            <mxPoint x="100" y="128.86" as="targetPoint" />
          </mxGeometry>
        </mxCell>
        <mxCell id="BsqLiGkud_p7bw2zS82Q-54" value="" style="endArrow=classic;html=1;rounded=0;entryX=0;entryY=0.25;entryDx=0;entryDy=0;" edge="1" parent="1">
          <mxGeometry width="50" height="50" relative="1" as="geometry">
            <mxPoint x="60" y="140.86" as="sourcePoint" />
            <mxPoint x="100" y="140.86" as="targetPoint" />
          </mxGeometry>
        </mxCell>
        <mxCell id="BsqLiGkud_p7bw2zS82Q-55" value="" style="endArrow=classic;html=1;rounded=0;entryX=0;entryY=0.25;entryDx=0;entryDy=0;" edge="1" parent="1">
          <mxGeometry width="50" height="50" relative="1" as="geometry">
            <mxPoint x="60" y="173.86" as="sourcePoint" />
            <mxPoint x="100" y="173.86" as="targetPoint" />
          </mxGeometry>
        </mxCell>
        <mxCell id="BsqLiGkud_p7bw2zS82Q-56" value="" style="endArrow=classic;html=1;rounded=0;entryX=0;entryY=0.25;entryDx=0;entryDy=0;" edge="1" parent="1">
          <mxGeometry width="50" height="50" relative="1" as="geometry">
            <mxPoint x="60" y="185.86" as="sourcePoint" />
            <mxPoint x="100" y="185.86" as="targetPoint" />
          </mxGeometry>
        </mxCell>
        <mxCell id="BsqLiGkud_p7bw2zS82Q-57" value="" style="endArrow=classic;html=1;rounded=0;entryX=0;entryY=0.25;entryDx=0;entryDy=0;" edge="1" parent="1">
          <mxGeometry width="50" height="50" relative="1" as="geometry">
            <mxPoint x="60" y="203.86" as="sourcePoint" />
            <mxPoint x="100" y="203.86" as="targetPoint" />
          </mxGeometry>
        </mxCell>
        <mxCell id="BsqLiGkud_p7bw2zS82Q-58" value="" style="endArrow=classic;html=1;rounded=0;entryX=0;entryY=0.25;entryDx=0;entryDy=0;" edge="1" parent="1">
          <mxGeometry width="50" height="50" relative="1" as="geometry">
            <mxPoint x="60" y="215.86" as="sourcePoint" />
            <mxPoint x="100" y="215.86" as="targetPoint" />
          </mxGeometry>
        </mxCell>
        <mxCell id="BsqLiGkud_p7bw2zS82Q-59" value="" style="endArrow=classic;html=1;rounded=0;entryX=0;entryY=0.25;entryDx=0;entryDy=0;" edge="1" parent="1">
          <mxGeometry width="50" height="50" relative="1" as="geometry">
            <mxPoint x="60" y="243.86" as="sourcePoint" />
            <mxPoint x="100" y="243.86" as="targetPoint" />
          </mxGeometry>
        </mxCell>
        <mxCell id="BsqLiGkud_p7bw2zS82Q-60" value="" style="endArrow=classic;html=1;rounded=0;entryX=0;entryY=0.25;entryDx=0;entryDy=0;" edge="1" parent="1">
          <mxGeometry width="50" height="50" relative="1" as="geometry">
            <mxPoint x="60" y="255.86" as="sourcePoint" />
            <mxPoint x="100" y="255.86" as="targetPoint" />
          </mxGeometry>
        </mxCell>
        <mxCell id="BsqLiGkud_p7bw2zS82Q-61" value="" style="endArrow=classic;html=1;rounded=0;entryX=0;entryY=0.25;entryDx=0;entryDy=0;" edge="1" parent="1">
          <mxGeometry width="50" height="50" relative="1" as="geometry">
            <mxPoint x="60" y="273.86" as="sourcePoint" />
            <mxPoint x="100" y="273.86" as="targetPoint" />
          </mxGeometry>
        </mxCell>
        <mxCell id="BsqLiGkud_p7bw2zS82Q-62" value="" style="endArrow=classic;html=1;rounded=0;entryX=0;entryY=0.25;entryDx=0;entryDy=0;" edge="1" parent="1">
          <mxGeometry width="50" height="50" relative="1" as="geometry">
            <mxPoint x="60" y="285.86" as="sourcePoint" />
            <mxPoint x="100" y="285.86" as="targetPoint" />
          </mxGeometry>
        </mxCell>
        <mxCell id="BsqLiGkud_p7bw2zS82Q-63" value="" style="endArrow=classic;html=1;rounded=0;entryX=0;entryY=0.25;entryDx=0;entryDy=0;" edge="1" parent="1">
          <mxGeometry width="50" height="50" relative="1" as="geometry">
            <mxPoint x="60" y="318.86" as="sourcePoint" />
            <mxPoint x="100" y="318.86" as="targetPoint" />
          </mxGeometry>
        </mxCell>
        <mxCell id="BsqLiGkud_p7bw2zS82Q-64" value="" style="endArrow=classic;html=1;rounded=0;entryX=0;entryY=0.25;entryDx=0;entryDy=0;" edge="1" parent="1">
          <mxGeometry width="50" height="50" relative="1" as="geometry">
            <mxPoint x="60" y="330.86" as="sourcePoint" />
            <mxPoint x="100" y="330.86" as="targetPoint" />
          </mxGeometry>
        </mxCell>
        <mxCell id="BsqLiGkud_p7bw2zS82Q-65" value="" style="endArrow=classic;html=1;rounded=0;entryX=0;entryY=0.25;entryDx=0;entryDy=0;" edge="1" parent="1">
          <mxGeometry width="50" height="50" relative="1" as="geometry">
            <mxPoint x="60" y="348.86" as="sourcePoint" />
            <mxPoint x="100" y="348.86" as="targetPoint" />
          </mxGeometry>
        </mxCell>
        <mxCell id="BsqLiGkud_p7bw2zS82Q-66" value="" style="endArrow=classic;html=1;rounded=0;entryX=0;entryY=0.25;entryDx=0;entryDy=0;" edge="1" parent="1">
          <mxGeometry width="50" height="50" relative="1" as="geometry">
            <mxPoint x="60" y="360.86" as="sourcePoint" />
            <mxPoint x="100" y="360.86" as="targetPoint" />
          </mxGeometry>
        </mxCell>
        <mxCell id="BsqLiGkud_p7bw2zS82Q-67" value="pre_sad" style="text;html=1;align=center;verticalAlign=middle;whiteSpace=wrap;rounded=0;" vertex="1" parent="1">
          <mxGeometry x="4" y="93" width="60" height="10" as="geometry" />
        </mxCell>
        <mxCell id="BsqLiGkud_p7bw2zS82Q-68" value="sad" style="text;html=1;align=center;verticalAlign=middle;whiteSpace=wrap;rounded=0;" vertex="1" parent="1">
          <mxGeometry x="4" y="105" width="60" height="10" as="geometry" />
        </mxCell>
        <mxCell id="BsqLiGkud_p7bw2zS82Q-69" value="pre_sad" style="text;html=1;align=center;verticalAlign=middle;whiteSpace=wrap;rounded=0;" vertex="1" parent="1">
          <mxGeometry x="4" y="124" width="60" height="10" as="geometry" />
        </mxCell>
        <mxCell id="BsqLiGkud_p7bw2zS82Q-70" value="sad" style="text;html=1;align=center;verticalAlign=middle;whiteSpace=wrap;rounded=0;" vertex="1" parent="1">
          <mxGeometry x="4" y="136" width="60" height="10" as="geometry" />
        </mxCell>
        <mxCell id="BsqLiGkud_p7bw2zS82Q-71" value="pre_sad" style="text;html=1;align=center;verticalAlign=middle;whiteSpace=wrap;rounded=0;" vertex="1" parent="1">
          <mxGeometry x="4" y="169" width="60" height="10" as="geometry" />
        </mxCell>
        <mxCell id="BsqLiGkud_p7bw2zS82Q-72" value="sad" style="text;html=1;align=center;verticalAlign=middle;whiteSpace=wrap;rounded=0;" vertex="1" parent="1">
          <mxGeometry x="4" y="181" width="60" height="10" as="geometry" />
        </mxCell>
        <mxCell id="BsqLiGkud_p7bw2zS82Q-73" value="pre_sad" style="text;html=1;align=center;verticalAlign=middle;whiteSpace=wrap;rounded=0;" vertex="1" parent="1">
          <mxGeometry x="4" y="198" width="60" height="10" as="geometry" />
        </mxCell>
        <mxCell id="BsqLiGkud_p7bw2zS82Q-74" value="sad" style="text;html=1;align=center;verticalAlign=middle;whiteSpace=wrap;rounded=0;" vertex="1" parent="1">
          <mxGeometry x="4" y="210" width="60" height="10" as="geometry" />
        </mxCell>
        <mxCell id="BsqLiGkud_p7bw2zS82Q-75" value="pre_sad" style="text;html=1;align=center;verticalAlign=middle;whiteSpace=wrap;rounded=0;" vertex="1" parent="1">
          <mxGeometry x="4" y="239" width="60" height="10" as="geometry" />
        </mxCell>
        <mxCell id="BsqLiGkud_p7bw2zS82Q-76" value="sad" style="text;html=1;align=center;verticalAlign=middle;whiteSpace=wrap;rounded=0;" vertex="1" parent="1">
          <mxGeometry x="4" y="251" width="60" height="10" as="geometry" />
        </mxCell>
        <mxCell id="BsqLiGkud_p7bw2zS82Q-77" value="pre_sad" style="text;html=1;align=center;verticalAlign=middle;whiteSpace=wrap;rounded=0;" vertex="1" parent="1">
          <mxGeometry x="4" y="268" width="60" height="10" as="geometry" />
        </mxCell>
        <mxCell id="BsqLiGkud_p7bw2zS82Q-78" value="sad" style="text;html=1;align=center;verticalAlign=middle;whiteSpace=wrap;rounded=0;" vertex="1" parent="1">
          <mxGeometry x="4" y="280" width="60" height="10" as="geometry" />
        </mxCell>
        <mxCell id="BsqLiGkud_p7bw2zS82Q-79" value="pre_sad" style="text;html=1;align=center;verticalAlign=middle;whiteSpace=wrap;rounded=0;" vertex="1" parent="1">
          <mxGeometry x="4" y="314" width="60" height="10" as="geometry" />
        </mxCell>
        <mxCell id="BsqLiGkud_p7bw2zS82Q-80" value="sad" style="text;html=1;align=center;verticalAlign=middle;whiteSpace=wrap;rounded=0;" vertex="1" parent="1">
          <mxGeometry x="4" y="326" width="60" height="10" as="geometry" />
        </mxCell>
        <mxCell id="BsqLiGkud_p7bw2zS82Q-81" value="pre_sad" style="text;html=1;align=center;verticalAlign=middle;whiteSpace=wrap;rounded=0;" vertex="1" parent="1">
          <mxGeometry x="4" y="344" width="60" height="10" as="geometry" />
        </mxCell>
        <mxCell id="BsqLiGkud_p7bw2zS82Q-82" value="sad" style="text;html=1;align=center;verticalAlign=middle;whiteSpace=wrap;rounded=0;" vertex="1" parent="1">
          <mxGeometry x="4" y="356" width="60" height="10" as="geometry" />
        </mxCell>
      </root>
    </mxGraphModel>
  </diagram>
</mxfile>
